<?xml version="1.0" encoding="UTF-8" ?>
<!DOCTYPE svg PUBLIC "-//W3C//DTD SVG 1.1//EN" "http://www.w3.org/Graphics/SVG/1.1/DTD/svg11.dtd">
<svg width="256pt" height="256pt" viewBox="0 0 256 256" version="1.1" xmlns="http://www.w3.org/2000/svg">
<style type="text/css">
	.st0{stroke:#11a8cf;stroke-width:5;stroke-miterlimit:10;}
</style>
<g id="#6bb1cfff">
<path fill="#eef9fc" opacity="1.00" d=" M 120.56 0.00 L 135.44 0.00 C 163.66 1.67 191.25 12.82 212.44 31.57 C 231.11 47.86 244.89 69.68 251.48 93.57 C 253.82 101.74 254.99 110.19 256.00 118.62 L 256.00 144.22 C 252.93 160.25 248.63 176.26 240.58 190.58 C 228.84 211.34 211.34 228.84 190.58 240.58 C 176.25 248.63 160.24 252.94 144.20 256.00 L 117.66 256.00 C 109.03 254.78 100.35 253.57 91.98 251.03 C 65.97 243.50 42.58 227.38 26.16 205.86 C 10.63 185.70 1.54 160.82 0.00 135.44 L 0.00 120.57 C 1.85 88.30 16.31 56.98 39.92 34.88 C 61.58 14.20 90.69 1.74 120.56 0.00 M 54.04 69.01 C 53.92 105.69 54.09 142.37 53.95 179.05 C 54.07 181.38 53.85 184.49 56.32 185.71 C 58.84 186.24 61.44 186.10 64.00 186.12 C 94.67 185.80 125.33 186.54 156.00 186.34 C 170.25 186.18 184.51 186.64 198.75 186.12 C 198.72 183.12 198.72 180.13 198.76 177.13 C 161.51 176.79 124.24 177.00 86.98 176.91 C 79.35 176.44 71.70 176.35 64.06 176.23 C 63.90 140.49 64.08 104.75 63.97 69.01 C 60.66 68.98 57.35 68.98 54.04 69.01 M 173.27 74.72 C 173.02 79.08 178.37 80.05 181.09 82.31 C 179.45 85.21 177.80 88.10 175.95 90.87 C 167.46 103.91 159.22 117.11 150.76 130.17 C 143.17 126.37 136.37 121.22 128.94 117.16 C 126.15 115.50 122.53 115.94 120.19 118.18 C 108.25 128.55 96.33 138.96 84.42 149.37 C 79.83 153.53 74.89 157.30 70.61 161.79 C 72.69 164.98 75.12 167.92 77.86 170.57 C 91.71 158.88 105.17 146.74 118.90 134.91 C 121.20 133.16 123.06 130.31 125.86 129.51 C 131.66 131.83 136.57 135.93 142.00 138.98 C 146.10 141.29 150.50 145.61 155.56 143.54 C 158.29 141.15 159.83 137.75 161.82 134.78 C 171.64 119.43 181.37 104.03 191.30 88.75 C 194.20 90.26 197.05 91.90 200.06 93.20 C 201.45 93.49 201.66 91.49 201.38 90.54 C 199.93 83.64 198.11 76.82 196.82 69.88 C 188.78 70.38 181.07 72.92 173.27 74.72 Z" />
</g>
<g id="#ffffffff">
<path fill="#11a8cf" class="st0" opacity="1.00" d=" M 54.04 69.01 C 57.35 68.98 60.66 68.98 63.97 69.01 C 64.08 104.75 63.90 140.49 64.06 176.23 C 71.70 176.35 79.35 176.44 86.98 176.91 C 124.24 177.00 161.51 176.79 198.76 177.13 C 198.72 180.13 198.72 183.12 198.75 186.12 C 184.51 186.64 170.25 186.18 156.00 186.34 C 125.33 186.54 94.67 185.80 64.00 186.12 C 61.44 186.10 58.84 186.24 56.32 185.71 C 53.85 184.49 54.07 181.38 53.95 179.05 C 54.09 142.37 53.92 105.69 54.04 69.01 Z" />
<path fill="#11a8cf" class="st0" opacity="1.00" d=" M 173.27 74.72 C 181.07 72.92 188.78 70.38 196.82 69.88 C 198.11 76.82 199.93 83.64 201.38 90.54 C 201.66 91.49 201.45 93.49 200.06 93.20 C 197.05 91.90 194.20 90.26 191.30 88.75 C 181.37 104.03 171.64 119.43 161.82 134.78 C 159.83 137.75 158.29 141.15 155.56 143.54 C 150.50 145.61 146.10 141.29 142.00 138.98 C 136.57 135.93 131.66 131.83 125.86 129.51 C 123.06 130.31 121.20 133.16 118.90 134.91 C 105.17 146.74 91.71 158.88 77.86 170.57 C 75.12 167.92 72.69 164.98 70.61 161.79 C 74.89 157.30 79.83 153.53 84.42 149.37 C 96.33 138.96 108.25 128.55 120.19 118.18 C 122.53 115.94 126.15 115.50 128.94 117.16 C 136.37 121.22 143.17 126.37 150.76 130.17 C 159.22 117.11 167.46 103.91 175.95 90.87 C 177.80 88.10 179.45 85.21 181.09 82.31 C 178.37 80.05 173.02 79.08 173.27 74.72 Z" />
</g>
</svg>
