<?xml version="1.0" encoding="UTF-8" ?>
<!DOCTYPE svg PUBLIC "-//W3C//DTD SVG 1.1//EN" "http://www.w3.org/Graphics/SVG/1.1/DTD/svg11.dtd">
<svg width="200pt" height="98pt" viewBox="0 0 200 98" version="1.1" xmlns="http://www.w3.org/2000/svg">
<g id="#11a8cfff">
<path fill="#11a8cf" opacity="1.00" d=" M 0.82 0.82 C 7.46 0.35 14.14 0.24 20.76 0.99 C 21.15 7.53 21.20 14.10 20.63 20.63 C 14.06 21.20 7.46 21.12 0.89 20.80 C 0.31 14.15 0.34 7.47 0.82 0.82 Z" />
<path fill="#11a8cf" opacity="1.00" d=" M 26.12 0.88 C 32.76 0.31 39.43 0.32 46.06 0.85 C 46.52 7.48 46.65 14.14 45.90 20.75 C 39.35 21.16 32.78 21.17 26.23 20.70 C 25.50 14.11 25.58 7.47 26.12 0.88 Z" />
<path fill="#11a8cf" opacity="1.00" d=" M 52.27 1.00 C 58.71 -0.09 65.30 0.48 71.76 0.99 C 72.15 7.53 72.20 14.09 71.63 20.63 C 64.93 21.21 58.19 21.24 51.50 20.58 C 51.55 14.28 50.71 7.89 51.79 1.65 L 52.27 1.00 Z" />
<path fill="#11a8cf" opacity="1.00" d=" M 77.21 0.89 C 83.85 0.31 90.53 0.38 97.18 0.76 C 97.72 6.74 97.99 12.78 97.51 18.78 C 97.59 20.15 96.08 20.80 94.93 20.82 C 89.07 21.42 83.17 20.96 77.31 20.70 C 76.83 14.10 76.88 7.49 77.21 0.89 Z" />
<path fill="#11a8cf" opacity="1.00" d=" M 102.57 2.40 C 102.50 0.60 104.79 0.80 105.98 0.59 C 111.49 0.47 117.17 -0.12 122.56 1.27 C 123.57 7.68 122.99 14.20 122.63 20.63 C 116.25 20.94 109.77 21.65 103.44 20.54 C 102.23 18.98 102.44 16.90 102.30 15.06 C 102.28 10.84 102.09 6.60 102.57 2.40 Z" />
<path fill="#11a8cf" opacity="1.00" d=" M 128.21 0.89 C 134.85 0.31 141.53 0.38 148.18 0.76 C 148.94 7.19 148.58 13.66 148.69 20.11 C 142.00 21.72 135.10 20.99 128.31 20.69 C 127.82 14.10 127.88 7.49 128.21 0.89 Z" />
<path fill="#11a8cf" opacity="1.00" d=" M 154.27 0.99 C 160.71 -0.10 167.30 0.48 173.76 0.99 C 174.15 7.53 174.20 14.10 173.63 20.63 C 167.26 20.92 160.77 21.69 154.46 20.52 C 152.65 17.76 153.53 14.13 153.25 11.00 C 153.53 7.72 152.64 3.96 154.27 0.99 Z" />
<path fill="#11a8cf" opacity="1.00" d=" M 179.20 0.89 C 185.84 0.31 192.53 0.33 199.17 0.83 C 199.35 7.39 200.31 14.12 198.72 20.57 C 192.67 21.33 186.46 21.35 180.40 20.65 C 180.13 20.39 179.61 19.87 179.35 19.61 C 178.45 13.42 179.12 7.12 179.20 0.89 Z" />
<path fill="#11a8cf" opacity="1.00" d=" M 0.90 26.19 C 10.76 26.15 20.73 25.34 30.53 26.52 C 32.07 33.06 31.20 39.89 30.62 46.51 C 20.67 46.55 10.68 47.10 0.76 46.18 C 0.38 39.52 0.31 32.84 0.90 26.19 Z" />
<path fill="#11a8cf" opacity="1.00" d=" M 36.59 26.58 C 41.68 25.56 46.92 25.90 52.08 26.01 C 53.56 26.23 55.55 25.93 56.41 27.48 C 56.97 32.30 56.70 37.18 56.64 42.01 C 56.51 43.59 56.68 46.16 54.54 46.37 C 48.53 47.13 42.45 46.50 36.42 46.49 C 36.02 39.88 35.31 33.14 36.59 26.58 Z" />
<path fill="#11a8cf" opacity="1.00" d=" M 61.50 26.42 C 68.11 26.02 74.86 25.31 81.41 26.59 C 82.51 33.21 82.46 40.11 81.11 46.70 C 75.23 46.42 69.31 47.10 63.46 46.38 C 62.14 46.32 61.50 44.93 61.50 43.77 C 60.98 38.00 61.46 32.20 61.50 26.42 Z" />
<path fill="#11a8cf" opacity="1.00" d=" M 88.37 26.41 C 93.55 25.64 98.83 25.83 104.04 26.08 C 105.41 26.15 107.53 26.41 107.52 28.22 C 107.81 33.64 107.94 39.13 107.38 44.54 C 107.18 46.68 104.59 46.50 103.02 46.64 C 98.26 46.69 93.43 47.06 88.73 46.25 C 86.83 45.88 87.23 43.49 86.99 42.07 C 86.91 36.92 86.56 31.67 87.58 26.59 L 88.37 26.41 Z" />
<path fill="#11a8cf" opacity="1.00" d=" M 113.33 26.45 C 119.76 25.40 126.32 26.06 132.80 26.29 C 133.47 33.02 133.53 39.80 132.61 46.50 C 126.28 46.50 119.90 47.18 113.61 46.26 C 112.35 43.70 112.63 40.76 112.52 38.00 C 112.57 34.15 112.28 30.21 113.33 26.45 Z" />
<path fill="#11a8cf" opacity="1.00" d=" M 138.60 26.59 C 143.67 25.52 148.93 25.92 154.08 26.01 C 155.56 26.22 157.56 25.92 158.40 27.48 C 158.97 32.30 158.69 37.18 158.64 42.02 C 158.51 43.59 158.68 46.16 156.54 46.38 C 150.69 47.10 144.78 46.43 138.91 46.70 C 137.54 40.12 137.47 33.21 138.60 26.59 Z" />
<path fill="#11a8cf" opacity="1.00" d=" M 165.20 26.29 C 170.77 25.57 176.40 26.13 182.00 26.01 C 187.55 26.12 193.16 25.51 198.67 26.44 C 199.73 30.54 199.43 34.82 199.46 39.01 C 199.36 41.44 199.54 44.04 198.39 46.27 C 192.63 47.13 186.79 46.47 181.00 46.61 C 175.55 46.51 170.05 47.10 164.64 46.26 C 162.84 39.91 163.21 32.91 164.33 26.45 L 165.20 26.29 Z" />
<path fill="#11a8cf" opacity="1.00" d=" M 0.85 51.92 C 7.47 51.47 14.14 51.35 20.75 52.08 C 21.16 58.63 21.17 65.21 20.70 71.76 C 14.11 72.48 7.47 72.40 0.88 71.87 C 0.31 65.23 0.32 58.56 0.85 51.92 Z" />
<path fill="#11a8cf" opacity="1.00" d=" M 26.13 51.97 C 32.75 51.43 39.41 51.44 46.03 51.96 C 46.23 58.48 47.20 65.18 45.66 71.60 C 39.90 72.72 33.94 72.42 28.13 72.00 C 26.54 72.03 25.80 70.32 25.86 68.97 C 25.41 63.31 25.78 57.62 26.13 51.97 Z" />
<path fill="#11a8cf" opacity="1.00" d=" M 51.64 53.47 C 51.66 51.70 53.78 51.92 54.98 51.71 C 60.49 51.54 66.14 51.04 71.54 52.33 C 72.58 58.75 71.95 65.30 71.70 71.76 C 64.98 72.47 58.19 72.53 51.49 71.62 C 51.51 65.57 50.84 59.48 51.64 53.47 Z" />
<path fill="#11a8cf" opacity="1.00" d=" M 77.45 52.32 C 81.20 51.29 85.15 51.57 89.00 51.52 C 91.76 51.65 94.73 51.31 97.28 52.61 C 98.16 58.91 97.50 65.29 97.50 71.62 C 90.87 72.25 84.06 72.98 77.48 71.57 C 76.63 65.22 76.63 58.68 77.45 52.32 Z" />
<path fill="#11a8cf" opacity="1.00" d=" M 102.63 53.46 C 102.63 51.71 104.80 51.93 105.98 51.71 C 111.49 51.54 117.13 51.04 122.54 52.33 C 123.60 58.76 122.95 65.30 122.70 71.77 C 115.98 72.47 109.20 72.54 102.50 71.61 C 102.49 65.57 101.85 59.48 102.63 53.46 Z" />
<path fill="#11a8cf" opacity="1.00" d=" M 128.44 52.32 C 133.86 51.06 139.51 51.53 145.02 51.72 C 146.22 51.92 148.33 51.70 148.36 53.47 C 149.15 59.49 148.48 65.58 148.50 71.62 C 141.88 72.24 135.06 73.00 128.49 71.56 C 127.59 65.21 127.66 58.68 128.44 52.32 Z" />
<path fill="#11a8cf" opacity="1.00" d=" M 153.61 53.45 C 153.59 51.74 155.84 51.96 156.98 51.71 C 162.57 51.27 168.18 51.60 173.75 52.07 C 174.16 58.63 174.17 65.21 173.69 71.77 C 166.98 72.48 160.20 72.54 153.50 71.61 C 153.48 65.56 152.88 59.48 153.61 53.45 Z" />
<path fill="#11a8cf" opacity="1.00" d=" M 179.24 52.07 C 185.85 51.35 192.51 51.47 199.14 51.93 C 199.67 58.57 199.68 65.24 199.11 71.88 C 192.61 72.05 185.92 73.08 179.53 71.53 C 178.35 65.11 179.09 58.55 179.24 52.07 Z" />
<path fill="#11a8cf" opacity="1.00" d=" M 0.89 77.19 C 9.95 76.85 19.01 77.03 28.07 76.96 C 29.85 77.21 32.30 76.68 33.40 78.49 C 34.09 84.72 33.70 91.02 33.18 97.25 C 22.39 97.59 11.59 97.68 0.81 97.20 C 0.34 90.54 0.31 83.85 0.89 77.19 Z" />
<path fill="#11a8cf" opacity="1.00" d=" M 38.52 77.37 C 45.33 76.89 52.17 76.92 59.00 77.00 C 83.67 77.00 108.34 77.00 133.00 77.00 C 142.27 77.05 151.55 76.78 160.82 77.26 C 161.28 83.88 161.88 90.65 160.38 97.19 C 125.25 97.05 90.13 97.18 55.00 97.11 C 49.80 97.07 44.61 97.15 39.42 97.40 C 37.48 90.90 38.44 84.04 38.52 77.37 Z" />
<path fill="#11a8cf" opacity="1.00" d=" M 166.50 77.42 C 172.32 76.86 178.17 76.94 184.00 77.00 C 188.91 77.06 193.86 76.59 198.73 77.42 C 200.32 83.87 199.34 90.62 199.17 97.18 C 188.38 97.72 177.56 97.54 166.76 97.29 C 166.09 90.68 166.30 84.04 166.50 77.42 Z" />
</g>
<g id="#11a8cf8c">
<path fill="#11a8cf" opacity="0.55" d=" M 39.42 97.40 C 44.61 97.15 49.80 97.07 55.00 97.11 C 90.13 97.18 125.25 97.05 160.38 97.19 L 160.05 98.00 L 40.10 98.00 L 39.42 97.40 Z" />
</g>
</svg>
