<?xml version="1.0" encoding="UTF-8" ?>
<!DOCTYPE svg PUBLIC "-//W3C//DTD SVG 1.1//EN" "http://www.w3.org/Graphics/SVG/1.1/DTD/svg11.dtd">
<svg width="256pt" height="256pt" viewBox="0 0 256 256" version="1.1" xmlns="http://www.w3.org/2000/svg">
<g id="#357281ff">
<path fill="#eef9fc" opacity="1.00" d=" M 111.13 1.18 C 135.88 -2.02 161.57 1.98 183.99 13.04 C 211.29 26.31 233.51 49.65 245.38 77.60 C 257.64 105.99 258.95 138.89 249.16 168.21 C 240.65 193.97 223.62 216.80 201.41 232.38 C 179.86 247.65 153.44 255.93 127.03 255.63 C 96.97 255.61 67.12 244.37 44.44 224.66 C 22.63 205.98 7.47 179.71 2.27 151.47 C -2.81 124.00 1.10 94.82 13.97 69.95 C 32.45 32.92 70.03 6.26 111.13 1.18 M 121.42 22.03 C 121.21 27.90 121.41 33.79 121.38 39.67 C 106.11 40.77 91.13 45.87 78.47 54.50 C 61.28 66.03 48.29 83.77 42.76 103.74 C 37.66 121.75 38.47 141.37 45.00 158.91 C 51.90 177.48 65.31 193.53 82.32 203.69 C 100.29 214.67 122.32 218.61 143.04 215.01 C 176.89 209.57 205.95 182.49 213.75 149.10 C 218.78 128.59 216.35 106.21 206.56 87.46 C 201.49 79.55 189.18 81.51 183.73 87.99 C 180.29 92.42 181.35 98.61 183.74 103.28 C 193.88 125.18 188.94 152.87 172.02 170.04 C 160.57 182.29 143.76 189.35 126.99 188.95 C 111.10 188.88 95.37 182.08 84.32 170.69 C 74.34 160.66 68.13 147.02 66.94 132.94 C 65.43 115.99 71.58 98.57 83.21 86.18 C 93.07 75.45 106.92 68.74 121.34 66.98 C 121.44 72.30 121.22 77.63 121.40 82.95 C 121.41 84.41 123.31 85.43 124.48 84.39 C 140.71 74.98 156.78 65.30 173.01 55.89 C 174.44 55.10 175.69 54.04 176.86 52.89 C 174.32 49.97 170.60 48.58 167.41 46.52 C 152.55 37.99 137.99 28.87 122.96 20.66 C 122.57 21.00 121.80 21.69 121.42 22.03 Z" />
</g>
<g id="#f9fafbff">
<path fill="#11a8cf" opacity="1.00" d=" M 121.42 22.03 C 121.80 21.69 122.57 21.00 122.96 20.66 C 137.99 28.87 152.55 37.99 167.41 46.52 C 170.60 48.58 174.32 49.97 176.86 52.89 C 175.69 54.04 174.44 55.10 173.01 55.89 C 156.78 65.30 140.71 74.98 124.48 84.39 C 123.31 85.43 121.41 84.41 121.40 82.95 C 121.22 77.63 121.44 72.30 121.34 66.98 C 106.92 68.74 93.07 75.45 83.21 86.18 C 71.58 98.57 65.43 115.99 66.94 132.94 C 68.13 147.02 74.34 160.66 84.32 170.69 C 95.37 182.08 111.10 188.88 126.99 188.95 C 143.76 189.35 160.57 182.29 172.02 170.04 C 188.94 152.87 193.88 125.18 183.74 103.28 C 181.35 98.61 180.29 92.42 183.73 87.99 C 189.18 81.51 201.49 79.55 206.56 87.46 C 216.35 106.21 218.78 128.59 213.75 149.10 C 205.95 182.49 176.89 209.57 143.04 215.01 C 122.32 218.61 100.29 214.67 82.32 203.69 C 65.31 193.53 51.90 177.48 45.00 158.91 C 38.47 141.37 37.66 121.75 42.76 103.74 C 48.29 83.77 61.28 66.03 78.47 54.50 C 91.13 45.87 106.11 40.77 121.38 39.67 C 121.41 33.79 121.21 27.90 121.42 22.03 Z" />
</g>
</svg>
